<?xml version="1.0" encoding="utf-8"?>
<!-- Generator: Adobe Illustrator 19.2.0, SVG Export Plug-In . SVG Version: 6.00 Build 0)  -->
<svg version="1.1" id="Layer_1" xmlns="http://www.w3.org/2000/svg" xmlns:xlink="http://www.w3.org/1999/xlink" x="0px" y="0px"
	 viewBox="0 0 100 100" style="enable-background:new 0 0 100 100;" xml:space="preserve">
<style type="text/css">
	.st0{fill:#33449C;}
	.st1{fill:none;stroke:#33449C;stroke-width:0.5;stroke-miterlimit:10;}
	.st2{fill:none;stroke:#33449C;stroke-width:2;stroke-miterlimit:10;}
	.st3{fill:none;stroke:#33449C;stroke-miterlimit:10;}
</style>
<g>
	<path class="st0" d="M45.6,55.1c-0.1,0-0.2,0-0.2-0.1l-8.6-4.3c-0.3-0.1-0.4-0.4-0.4-0.8c0-0.3,0.2-0.6,0.4-0.7l8.6-4.3
		c0.1,0,0.2,0,0.3,0c0.3,0,0.6,0.2,0.6,0.6c0,0.2-0.1,0.4-0.4,0.6L37.8,50l8.1,3.9c0.2,0.1,0.3,0.3,0.3,0.5
		C46.3,54.8,45.9,55.1,45.6,55.1z"/>
	<path class="st0" d="M53.1,42.8l-5,14.8C48,57.9,47.8,58,47.5,58c-0.4,0-0.6-0.3-0.6-0.6c0-0.1,0-0.1,0-0.2l5-14.8
		c0.1-0.2,0.3-0.4,0.6-0.4c0.4,0,0.6,0.3,0.6,0.6C53.1,42.7,53.1,42.7,53.1,42.8z"/>
	<path class="st0" d="M63.3,50.7L54.6,55c-0.1,0-0.2,0.1-0.3,0.1c-0.3,0-0.6-0.3-0.6-0.6c0-0.2,0.1-0.4,0.3-0.5l8.1-3.9L54,46.2
		c-0.2-0.1-0.4-0.3-0.4-0.5c0-0.4,0.3-0.6,0.6-0.6c0.1,0,0.2,0,0.3,0l8.6,4.3c0.3,0.1,0.4,0.4,0.4,0.7
		C63.7,50.3,63.5,50.6,63.3,50.7z"/>
</g>
<g>
	<circle class="st1" cx="16" cy="23.2" r="0.9"/>
	<circle class="st1" cx="19.3" cy="23.2" r="0.9"/>
	<circle class="st1" cx="22.5" cy="23.2" r="0.9"/>
	<rect x="11.7" y="19.9" class="st2" width="76.6" height="60.1"/>
	<line class="st3" x1="11.7" y1="26" x2="88.3" y2="26"/>
</g>
</svg>
