<?xml version="1.0" encoding="utf-8"?>
<!-- Generator: Adobe Illustrator 19.1.0, SVG Export Plug-In . SVG Version: 6.00 Build 0)  -->
<svg version="1.1" id="Layer_1" xmlns="http://www.w3.org/2000/svg" xmlns:xlink="http://www.w3.org/1999/xlink" x="0px" y="0px"
	 viewBox="0 0 300 100" style="enable-background:new 0 0 300 100;" xml:space="preserve">
<style type="text/css">
	.st0{fill:none;}
	.st1{font-family:'ProximaNovaT-Thin';}
	.st2{font-size:38px;}
	.st3{font-family:'ProximaNova-Regular';}
</style>
<g>
	<g>
		<g>
			<circle cx="69.9" cy="25.9" r="3.8"/>
		</g>
		<g>
			<circle cx="44.9" cy="43.8" r="3.8"/>
		</g>
		<g>
			<circle cx="62.2" cy="61.4" r="3.8"/>
		</g>
		<g>
			<circle cx="36.7" cy="75.1" r="3.8"/>
		</g>
		<g>
			<circle cx="90.1" cy="30.5" r="3.8"/>
		</g>
		<g>
			<circle cx="63.8" cy="80.1" r="3.8"/>
		</g>
		<g>
			<path d="M36.7,76c-0.1,0-0.2,0-0.3-0.1c-0.1,0-0.2-0.1-0.2-0.1c-0.1-0.1-0.2-0.2-0.3-0.4c0,0,0-0.1,0-0.1l-6.1-21
				c-0.1-0.4,0-0.8,0.3-1L70,25c0.4-0.3,0.8-0.2,1.1,0.1c0.3,0.3,0.4,0.8,0.1,1.1L39.5,72.6l22.3-11.9c0.1-0.1,0.3-0.1,0.4-0.1h36.4
				l-9.2-29.4L72.3,16c-0.4-0.3-0.4-0.9-0.1-1.3c0.3-0.4,0.9-0.4,1.3-0.1L90.7,30c0.1,0.1,0.2,0.2,0.3,0.4l9.7,30.8
				c0.1,0.3,0,0.6-0.1,0.8c-0.2,0.2-0.4,0.4-0.7,0.4H62.5L37.1,75.9c0,0-0.1,0-0.1,0.1c-0.1,0-0.1,0-0.2,0C36.8,76,36.7,76,36.7,76z
				 M31.6,54.4L37,73l29.9-43.7L31.6,54.4z"/>
		</g>
		<g>
			<path d="M62.2,62.3c-0.1,0-0.1,0-0.2,0l0,0c0,0,0,0,0,0c0,0,0,0,0,0l0,0c0,0,0,0,0,0l0,0c-0.2,0-0.3-0.1-0.4-0.2L34.9,35.3
				l-3.5,18.9c-0.1,0.5-0.6,0.8-1,0.7c-0.5-0.1-0.8-0.6-0.7-1l3.8-20.6c0.1-0.3,0.3-0.6,0.6-0.7c0.3-0.1,0.7,0,0.9,0.2l26.8,26.8
				l7.7-33.3l-22.2-5.6c-0.4-0.1-0.7-0.5-0.7-0.9c0-0.4,0.3-0.8,0.7-0.9l25.5-4.5c0.3-0.1,0.6,0,0.8,0.3c0.2,0.2,0.3,0.5,0.2,0.8
				L71.6,25l18.8,4.7c0.3,0.1,0.5,0.3,0.6,0.6c0.1,0.3,0,0.6-0.2,0.9L62.9,62c-0.1,0.1-0.1,0.1-0.2,0.2c0,0,0,0,0,0c0,0,0,0,0,0l0,0
				c0,0,0,0,0,0c0,0,0,0,0,0c0,0,0,0,0,0c0,0,0,0,0,0h0c0,0,0,0,0,0C62.6,62.3,62.4,62.3,62.2,62.3z M71.2,26.8l-7.3,31.5l24.6-27.1
				L71.2,26.8z M51.7,20l18.1,4.6l1.9-8.1L51.7,20z"/>
		</g>
		<g>
			<path d="M63.8,81c-0.1,0-0.1,0-0.2,0l-27.1-5c-0.5-0.1-0.8-0.6-0.7-1c0.1-0.5,0.6-0.8,1-0.7l26,4.8l-1.4-17.4L46.6,20.2
				c-0.2-0.5,0.1-1,0.5-1.1c0.5-0.2,1,0.1,1.1,0.5l14.8,41.6c0,0.1,0,0.1,0,0.2L64.7,80c0,0.3-0.1,0.6-0.3,0.7
				C64.2,80.9,64,81,63.8,81z"/>
		</g>
		<g>
			<path d="M63.8,81c-0.1,0-0.3,0-0.4-0.1c-0.4-0.2-0.6-0.8-0.4-1.2l26.4-49.5c0.2-0.4,0.8-0.6,1.2-0.4c0.4,0.2,0.6,0.8,0.4,1.2
				L64.5,80.5C64.4,80.8,64.1,81,63.8,81z"/>
		</g>
	</g>
	<rect x="106.9" y="40" class="st0" width="163.4" height="53.5"/>
	<text transform="matrix(1 0 0 1 106.9047 65.3328)"><tspan x="0" y="0" class="st1 st2">Client</tspan><tspan x="92.2" y="0" class="st3 st2">App</tspan></text>
</g>
</svg>
