<?xml version="1.0" encoding="utf-8"?>
<!-- Generator: Adobe Illustrator 19.1.0, SVG Export Plug-In . SVG Version: 6.00 Build 0)  -->
<svg version="1.1" xmlns="http://www.w3.org/2000/svg" xmlns:xlink="http://www.w3.org/1999/xlink" x="0px" y="0px"
	 viewBox="0 0 100 100" style="enable-background:new 0 0 100 100;" xml:space="preserve">
<style type="text/css">
	.st0{fill:none;}
	.st1{fill:#ED6358;}
	.st2{fill:#E75945;}
	.st3{fill:url(#New_Pattern_2);}
</style>
<pattern  width="12" height="12" patternUnits="userSpaceOnUse" id="New_Pattern_2" viewBox="1.5 -13.5 12 12" style="overflow:visible;">
	<g>
		<polygon class="st0" points="1.5,-13.5 13.5,-13.5 13.5,-1.5 1.5,-1.5 		"/>
		<path class="st1" d="M12-4.5C12-5.3,12.7-6,13.5-6S15-5.3,15-4.5S14.3-3,13.5-3S12-3.7,12-4.5z"/>
		<path class="st1" d="M6-1.5C6-2.3,6.7-3,7.5-3S9-2.3,9-1.5S8.3,0,7.5,0S6-0.7,6-1.5z"/>
		<path class="st1" d="M0-4.5C0-5.3,0.7-6,1.5-6S3-5.3,3-4.5S2.3-3,1.5-3S0-3.7,0-4.5z"/>
		<path class="st1" d="M12-10.5c0-0.8,0.7-1.5,1.5-1.5s1.5,0.7,1.5,1.5S14.3-9,13.5-9S12-9.7,12-10.5z"/>
		<path class="st1" d="M6-7.5C6-8.3,6.7-9,7.5-9S9-8.3,9-7.5S8.3-6,7.5-6S6-6.7,6-7.5z"/>
		<path class="st1" d="M0-10.5C0-11.3,0.7-12,1.5-12S3-11.3,3-10.5S2.3-9,1.5-9S0-9.7,0-10.5z"/>
		<path class="st1" d="M6-13.5C6-14.3,6.7-15,7.5-15S9-14.3,9-13.5S8.3-12,7.5-12S6-12.7,6-13.5z"/>
	</g>
</pattern>
<g id="Layer_1">
	<rect class="st2" width="100" height="100"/>
</g>
<g id="Layer_2">
	<circle class="st1" cx="-10.1" cy="17.6" r="1.5"/>
	<rect class="st3" width="100" height="100"/>
</g>
</svg>
