<?xml version="1.0" encoding="utf-8"?>
<!-- Generator: Adobe Illustrator 19.1.0, SVG Export Plug-In . SVG Version: 6.00 Build 0)  -->
<svg version="1.1" xmlns="http://www.w3.org/2000/svg" xmlns:xlink="http://www.w3.org/1999/xlink" x="0px" y="0px"
	 viewBox="0 0 100 100" style="enable-background:new 0 0 100 100;" xml:space="preserve">
<style type="text/css">
	.st0{fill:none;}
	.st1{fill:#CE4C3E;}
	.st2{fill:#E75945;}
	.st3{fill:url(#New_Pattern);}
</style>
<pattern  width="9" height="6" patternUnits="userSpaceOnUse" id="New_Pattern" viewBox="1.5 -7.5 9 6" style="overflow:visible;">
	<g>
		<polygon class="st0" points="1.5,-7.5 10.5,-7.5 10.5,-1.5 1.5,-1.5 		"/>
		<path class="st1" d="M9-1.5C9-2.3,9.7-3,10.5-3S12-2.3,12-1.5S11.3,0,10.5,0S9-0.7,9-1.5z"/>
		<path class="st1" d="M0-1.5C0-2.3,0.7-3,1.5-3S3-2.3,3-1.5S2.3,0,1.5,0S0-0.7,0-1.5z"/>
		<path class="st1" d="M9-7.5C9-8.3,9.7-9,10.5-9S12-8.3,12-7.5S11.3-6,10.5-6S9-6.7,9-7.5z"/>
		<path class="st1" d="M4.5-4.5C4.5-5.3,5.2-6,6-6s1.5,0.7,1.5,1.5S6.8-3,6-3S4.5-3.7,4.5-4.5z"/>
		<path class="st1" d="M0-7.5C0-8.3,0.7-9,1.5-9S3-8.3,3-7.5S2.3-6,1.5-6S0-6.7,0-7.5z"/>
	</g>
</pattern>
<g id="Layer_1">
	<rect class="st2" width="100" height="100"/>
</g>
<g id="Layer_2">
	<circle class="st1" cx="-10.1" cy="17.6" r="1.5"/>
	<rect class="st3" width="100" height="100"/>
</g>
</svg>
