<?xml version="1.0" encoding="utf-8"?>
<!-- Generator: Adobe Illustrator 19.1.0, SVG Export Plug-In . SVG Version: 6.00 Build 0)  -->
<svg version="1.1" id="Layer_1" xmlns="http://www.w3.org/2000/svg" xmlns:xlink="http://www.w3.org/1999/xlink" x="0px" y="0px"
	 viewBox="0 0 729.9 500" style="enable-background:new 0 0 729.9 500;" xml:space="preserve">
<style type="text/css">
	.st0{fill:none;stroke:#F79441;stroke-width:20;stroke-linecap:round;stroke-miterlimit:10;}
	.st1{fill:none;stroke:#26BFCC;stroke-width:20;stroke-linecap:round;stroke-miterlimit:10;}
	.st2{fill:none;stroke:#FFC839;stroke-width:20;stroke-linecap:round;stroke-miterlimit:10;}
	.st3{fill:none;stroke:#EE6149;stroke-width:20;stroke-linecap:round;stroke-miterlimit:10;}
	.st4{fill:none;stroke:#91C382;stroke-width:20;stroke-linecap:round;stroke-miterlimit:10;}
</style>
<path class="st0" d="M408.7,59.6c-43.2-43.2-43.2-113,0-156.1"/>
<path class="st1" d="M598.2,115c-43.2-43.2-113-43.2-156.1,0"/>
<path class="st0" d="M451.7,239.9c-52.8-30.5-120.3-12.4-150.8,40.4"/>
<path class="st2" d="M249.9,209.6c41.9-44.4,39.8-114.2-4.6-156.1"/>
<path class="st3" d="M569.6,303.1c-43.2-43.2-43.2-113,0-156.1"/>
<path class="st2" d="M5.7,375.1c-24.9-55.7,0.1-120.9,55.8-145.8"/>
<path class="st1" d="M326,626.9c-37.6-48.1-29.2-117.4,18.9-155"/>
<path class="st1" d="M665.3,280.8c24.8,55.7,90,80.8,145.8,56"/>
<path class="st3" d="M239.7-53.9C178.7-55.3,128.2-7,126.9,54"/>
<path class="st2" d="M482,483.6c0-61,49.4-110.4,110.4-110.4"/>
<path class="st4" d="M615.5,447.2c60.8,5.7,105.3,59.5,99.6,120.3"/>
<path class="st4" d="M610.1,30.6c0-61,49.4-110.4,110.4-110.4"/>
<path class="st4" d="M0,66.1c24.8,55.7,90,80.8,145.8,56"/>
<path class="st4" d="M279.7,386c52.8,30.5,120.3,12.4,150.8-40.4"/>
<path class="st2" d="M789.7,113.5c-58.2-18.3-120.1,14-138.4,72.2"/>
<path class="st3" d="M236.3,346.4c-24.8-55.7-90-80.8-145.8-56"/>
<path class="st0" d="M72.9,538.8c0-61,49.4-110.4,110.4-110.4"/>
</svg>
