<?xml version="1.0" encoding="utf-8"?>
<!-- Generator: Adobe Illustrator 19.1.0, SVG Export Plug-In . SVG Version: 6.00 Build 0)  -->
<svg version="1.1" id="Logo" xmlns="http://www.w3.org/2000/svg" xmlns:xlink="http://www.w3.org/1999/xlink" x="0px" y="0px"
	 viewBox="0 0 1838.9 500" style="enable-background:new 0 0 1838.9 500;" xml:space="preserve">
<style type="text/css">
	.st0{fill:#010101;}
</style>
<g id="XMLID_18_">
	<g id="XMLID_4_">
		<path class="st0" d="M284.6,432.5c2.2-11.1,4.7-22,7.9-32.8c5.4-18.7,10.3-38.3,19.7-55.5c9.5-17.4,28.2-29.8,45.9-37.7
			c8.2-3.7-19.4-5.6-37.3-13.3c-24.3-10.4-15.6-22.8-30.1-44.2c0,0-8.1-7.2,9.5-14.1c17.7-6.9,25.8-31.2,21-45.5
			c-4.8-14.3-3.9-14.6-3.9-14.6s22.1-18.2,30.1-23.8c8-5.6,19.1-25.2,17.4-47.3c-1.7-21.8-9.1-22-9.3-22c0,0,8.4,10.6,5,21.2
			c-3.3,10.6-5.8,30.1-11.1,32.7c0.3-1,19.9-64.9-24.3-87.6c0,0,24.5,25.4,21.9,52.7c-2.6,27.3-8,31.4-8,31.4s-3.9-10.8-33-13.7
			c0,0-16.9-26.4-21.2-28.2c-4.3-1.9,12.1,19.5,9.5,23.4c-2.6,3.9-26.7,5.9-51.2-8c0,0,10.8,16.1,42.7,19.7
			c31.9,3.5,50.7,8.7,48.1,17.8c-2.6,9.1-2.6,12.4-22.8,22.6c-19.9,10-29,17.2-29.3,17.5c0.1-0.3,2.3-6.7,0-6.1
			c-2.4,0.6-5.2-2.1-8.7,8.2c-3.5,10.2-8.7,0-26.6,17.6c0,0-5.2-2.2-12.8,0c-7.6,2.2-5.6-9.6-0.9-21.7c4.6-11.9,21.6-30.9,22.1-31.5
			c-0.6,0.2-15.5,7.1-31.7,28.4c0,0-9.1,0.7-5.8-4.5c3.3-5.2,22.8-66.6,22.1-77.7c-0.7-11.1-4.4,18.2-14.7,29.9
			c-10.2,11.7-7.6-11.9-7.4,16.1c0.2,28-9.7,28-10.2,28c-0.5,0-14.5,1.1-16.1-9.7c-1.7-10.7,4.9-92.3,5-93.9
			c-0.3,0.8-11.3,26.8-13.3,58.8c-2.1,32.5,0.7,33.4-3.4,34.1c-4.1,0.7-24.9-3.3-24.3-13.6c0.5-10.2-3.4-57.8-4.4-63.9
			c0,0-2.5,58.3-2.5,61.1c0,2.8-11.1,2.5-12.7-7.8c-1.6-10.2,1.6-17.4,1.6-17.4s-17.4,14,0.6,32.9c18,18.9,72.6,31,76.6,35.7
			c4,4.7-5.6,1.9-3.7,16.7c1.9,14.9-4.3,14.6-4.3,14.6s-18.3,3.1-15.8,22c0,0-17.1,18.6-23.6,23.9c-6.5,5.3-9.3,5.3-8.4,8
			c0,0-19.6,10.8,0.2,25.2c0,0,2.4,10.4,17.3,9.8c15-0.5,9.7-3.5,12.6-4.1c2.9-0.6,39.2-1.8,41.7,0.2c2.5,2,19.5,63.5,28,77.3
			c8.5,13.7-2.2,9.6,1.5,36.7C263.3,443.8,282.4,443.6,284.6,432.5z M277.4,201.6c0.2,15.9-3,9.2-4.3,7.8c-1.3-1.3-3.3-1.5-3.3-1.5
			C274.6,202.6,277.4,201.6,277.4,201.6z"/>
	</g>
	<g id="XMLID_3_">
		<path d="M563.2,311.6l-72-98.4v98.4H486V204.9h5.1l72,97.4v-97.4h5.1v106.7H563.2z"/>
		<path d="M642.7,311.6v-9.4c-7.2,7.8-15.8,11.4-26.7,11.4c-13.6,0-27-9.3-27-25.8s13.3-25.8,27-25.8c10.9,0,19.5,3.5,26.7,11.4
			v-17.4c0-12.5-9.9-19.2-21.8-19.2c-10.1,0-17.6,3.5-24.8,12.2l-3.7-3.2c7.5-8.8,15.5-13.3,28.5-13.3c15.2,0,26.6,7.7,26.6,23.4
			v55.8H642.7z M642.7,297.4v-19.2c-5.9-7.8-15.4-11.8-25.4-11.8c-14.1,0-23,9.4-23,21.4c0,12,9,21.4,23,21.4
			C627.3,309.2,636.8,305.2,642.7,297.4z"/>
		<path d="M723.1,311.6v-11.8c-6.6,7.4-17.3,13.8-28,13.8c-15.4,0-24.2-6.7-24.2-25v-54.2h4.8v54.2c0,16.2,8,20.6,20,20.6
			c10.6,0,21.9-6.4,27.4-14.1v-60.8h4.8v77.3H723.1z"/>
		<path d="M752.8,331.3l3.5-4c6.7,8.3,13.9,11.4,26.1,11.4c15.4,0,27.8-7.8,27.8-26.6v-13.4c-5.3,8-15.7,15.2-27.8,15.2
			c-20.8,0-34.6-16.2-34.6-40.6c0-24.3,13.8-40.8,34.6-40.8c11.5,0,21.6,6.1,27.8,15.2v-13.3h4.8v77.8c0,22.1-13.9,30.9-32.6,30.9
			C769.5,343,761.8,340.7,752.8,331.3z M810.3,293.9v-41.4c-4.8-8.2-15.8-15.7-27.8-15.7c-18.9,0-29.3,16.2-29.3,36.5
			c0,20.3,10.4,36.3,29.3,36.3C794.4,309.5,805.5,302,810.3,293.9z"/>
		<path d="M891,311.6v-54.2c0-16.2-8-20.6-20-20.6c-10.6,0-21.9,6.9-27.4,14.6v60.3h-4.8V204.9h4.8v41.6c5.8-7,17.3-14.1,28-14.1
			c15.4,0,24.2,6.7,24.2,25v54.2H891z"/>
		<path d="M920.9,298v-59.4h-12.8v-4.3h12.8v-21.1h4.8v21.1h15.7v4.3h-15.7V298c0,6.6,2.6,11.2,8.3,11.2c3.8,0,7.2-1.9,9.1-4.2
			l2.9,3.7c-3,2.9-6.2,4.8-12,4.8C925.1,313.5,920.9,307.6,920.9,298z"/>
		<path d="M950.8,272.9c0-22.7,14.2-40.5,36-40.5c21.9,0,36,17.8,36,40.5c0,22.7-14.1,40.6-36,40.6
			C965,313.5,950.8,295.6,950.8,272.9z M1017.5,272.9c0-18.7-10.9-36.2-30.7-36.2c-19.7,0-30.7,17.4-30.7,36.2
			c0,18.9,11,36.3,30.7,36.3C1006.6,309.2,1017.5,291.8,1017.5,272.9z"/>
		<path d="M1094.9,311.6v-53.9c0-16.2-8-21-20-21c-10.6,0-21.9,6.9-27.4,14.6v60.3h-4.8v-77.3h4.8v12.2c5.8-7,17.3-14.1,28-14.1
			c15.4,0,24.2,7,24.2,25.3v53.9H1094.9z"/>
		<path d="M1241.1,311.6c-4.2-3.5-9.8-8.8-15.4-14.2c-7.4,9.3-17.6,16.2-31.8,16.2c-17.1,0-31.4-9.8-31.4-28.6
			c0-17.1,11.7-25.8,24.2-32.8c-5.4-8.5-9.3-17.1-9.3-24.8c0-14.1,10.9-24,23.8-24c12.6,0,20.8,6.9,20.8,19.5
			c0,15.8-14.2,23-28,30.7c5,7.2,10.9,13.9,15,18.4c5.6,6.2,10.7,11.7,16,17c6.9-10.4,10.9-22.1,12.6-27.4l5.1,1.9
			c-3.2,8.3-7.2,19.7-13.8,29.4c6.1,5.9,12.6,12,20.5,18.7H1241.1z M1221.7,293.4c-7-7.2-13.6-14.1-16.8-17.9
			c-5.1-5.8-10.7-12.5-15.5-19.2c-11.4,6.6-21.3,14.4-21.3,28.6c0,15.8,12.3,23.8,25.8,23.8C1205.7,308.7,1214.9,302,1221.7,293.4z
			 M1191.3,249.4c12.8-6.9,25.1-13.3,25.1-26.6c0-9.8-6.6-14.7-15.2-14.7c-9.9,0-18.2,7.8-18.2,19.2
			C1183,234.2,1186.5,242,1191.3,249.4z"/>
		<path d="M1375.8,311.6l-32.5-46.1h-25.6v46.1h-5.1V204.9h36.8c17.3,0,31.5,10.7,31.5,30.2c0,19.5-14.2,30.4-31.5,30.4l33,46.1
			H1375.8z M1375.3,235.1c0-14.7-10.2-25.4-25.9-25.4h-31.7v51h31.7C1365.1,260.7,1375.3,249.9,1375.3,235.1z"/>
		<path d="M1394.2,272.9c0-22.7,14.2-40.5,36-40.5c21.9,0,36,17.8,36,40.5c0,22.7-14.1,40.6-36,40.6
			C1408.5,313.5,1394.2,295.6,1394.2,272.9z M1461,272.9c0-18.7-10.9-36.2-30.7-36.2c-19.7,0-30.7,17.4-30.7,36.2
			c0,18.9,11,36.3,30.7,36.3C1450.1,309.2,1461,291.8,1461,272.9z"/>
		<path d="M1478.9,301.2l3.8-3.5c4.8,6.4,13.1,11.5,24.5,11.5c14.2,0,22.9-7.7,22.9-17.9c0-23.7-49.6-11.4-49.6-38.4
			c0-11.4,9.6-20.5,26.2-20.5c13.3,0,21.6,5.3,26.6,11.7l-3.5,3.2c-4.5-6.4-12.6-10.6-23-10.6c-13.4,0-21.4,7-21.4,16.2
			c0,21.6,49.6,9.1,49.6,38.4c0,12-9,22.2-27.7,22.2C1495,313.5,1486.6,310,1478.9,301.2z"/>
		<path d="M1548.7,301.2l3.8-3.5c4.8,6.4,13.1,11.5,24.5,11.5c14.2,0,22.9-7.7,22.9-17.9c0-23.7-49.6-11.4-49.6-38.4
			c0-11.4,9.6-20.5,26.2-20.5c13.3,0,21.6,5.3,26.6,11.7l-3.5,3.2c-4.5-6.4-12.6-10.6-23-10.6c-13.4,0-21.4,7-21.4,16.2
			c0,21.6,49.6,9.1,49.6,38.4c0,12-9,22.2-27.7,22.2C1564.9,313.5,1556.4,310,1548.7,301.2z"/>
	</g>
</g>
</svg>
