<?xml version="1.0" encoding="utf-8"?>
<!-- Generator: Adobe Illustrator 19.1.0, SVG Export Plug-In . SVG Version: 6.00 Build 0)  -->
<svg version="1.1" id="Layer_1" xmlns="http://www.w3.org/2000/svg" xmlns:xlink="http://www.w3.org/1999/xlink" x="0px" y="0px"
	 viewBox="0 0 100 100" style="enable-background:new 0 0 100 100;" xml:space="preserve">
<style type="text/css">
	.st0{fill:#FFFFFF;}
</style>
<path id="XMLID_4_" class="st0" d="M57.8,87.1c0.5-2.3,1-4.6,1.6-6.8c1.1-3.9,2.1-8,4.1-11.6c2-3.6,5.9-6.2,9.6-7.9
	c1.7-0.8-4-1.2-7.8-2.8c-5.1-2.2-3.2-4.8-6.3-9.2c0,0-1.7-1.5,2-2.9c3.7-1.4,5.4-6.5,4.4-9.5c-1-3-0.8-3.1-0.8-3.1s4.6-3.8,6.3-5
	c1.7-1.2,4-5.3,3.6-9.9c-0.3-4.6-1.9-4.6-1.9-4.6c0,0,1.7,2.2,1,4.4c-0.7,2.2-1.2,6.3-2.3,6.8c0.1-0.2,4.1-13.5-5.1-18.3
	c0,0,5.1,5.3,4.6,11c-0.5,5.7-1.7,6.5-1.7,6.5s-0.8-2.2-6.9-2.9c0,0-3.5-5.5-4.4-5.9c-0.9-0.4,2.5,4.1,2,4.9
	c-0.5,0.8-5.6,1.2-10.7-1.7c0,0,2.2,3.4,8.9,4.1c6.7,0.7,10.6,1.8,10,3.7c-0.5,1.9-0.5,2.6-4.8,4.7c-4.1,2.1-6.1,3.6-6.1,3.6
	c0-0.1,0.5-1.4,0-1.3c-0.5,0.1-1.1-0.4-1.8,1.7c-0.7,2.1-1.8,0-5.5,3.7c0,0-1.1-0.5-2.7,0c-1.6,0.5-1.2-2-0.2-4.5
	c1-2.5,4.5-6.4,4.6-6.6c-0.1,0.1-3.2,1.5-6.6,5.9c0,0-1.9,0.2-1.2-0.9c0.7-1.1,4.8-13.9,4.6-16.2c-0.2-2.3-0.9,3.8-3.1,6.2
	c-2.1,2.4-1.6-2.5-1.5,3.4c0,5.8-2,5.8-2.1,5.8c-0.1,0-3,0.2-3.4-2c-0.3-2.2,1-19.2,1-19.6c-0.1,0.2-2.4,5.6-2.8,12.3
	c-0.4,6.8,0.2,7-0.7,7.1c-0.8,0.2-5.2-0.7-5.1-2.8c0.1-2.1-0.7-12.1-0.9-13.3c0,0-0.5,12.2-0.5,12.7c0,0.6-2.3,0.5-2.6-1.6
	C26.4,23,27,21.5,27,21.5s-3.6,2.9,0.1,6.9c3.8,3.9,15.1,6.5,16,7.4c0.8,1-1.2,0.4-0.8,3.5c0.4,3.1-0.9,3-0.9,3s-3.8,0.6-3.3,4.6
	c0,0-3.6,3.9-4.9,5c-1.4,1.1-1.9,1.1-1.7,1.7c0,0-4.1,2.3,0,5.2c0,0,0.5,2.2,3.6,2.1c3.1-0.1,2-0.7,2.6-0.9c0.6-0.1,8.2-0.4,8.7,0
	c0.5,0.4,4.1,13.2,5.8,16.1c1.8,2.9-0.5,2,0.3,7.7C53.4,89.5,57.4,89.4,57.8,87.1z M56.3,39c0.1,3.3-0.6,1.9-0.9,1.6
	c-0.3-0.3-0.7-0.3-0.7-0.3C55.7,39.2,56.3,39,56.3,39z"/>
</svg>
