<?xml version="1.0" encoding="utf-8"?>
<!-- Generator: Adobe Illustrator 19.2.0, SVG Export Plug-In . SVG Version: 6.00 Build 0)  -->
<svg version="1.1" id="Layer_1" xmlns="http://www.w3.org/2000/svg" xmlns:xlink="http://www.w3.org/1999/xlink" x="0px" y="0px"
	 viewBox="0 0 300 300" style="enable-background:new 0 0 300 300;" xml:space="preserve">
<style type="text/css">
	.st0{fill:#FF6564;}
	.st1{fill:#FC7A7A;}
</style>
<rect x="-0.1" class="st0" width="299.7" height="299.7"/>
<path class="st1" d="M-14.4,56.6c39.2,1.5,31.6,28.6,50.8-6s107.6-49.4,69.2,9.3s-47,61.2-62.4,54c-15.4-7.3-85.4-13.7-74.8-32
	S-37.5,55.7-14.4,56.6z"/>
<path class="st1" d="M4.8-18.6c6.4,44.4-28.2,58.9,6.4,44.4S89,9.2,61.2-6.6S4.8-18.6,4.8-18.6z"/>
<path class="st1" d="M168.4-10.5c-32,38.4-35.9,12-37.2,60.2c-1.3,48.3,2.6,83.3,23.1,75.6s39.3-21.8,24.3-34.2
	c-15-12.4-22.6,8.5-21.1-16.2c1.5-24.8,54-12,54-49.5S168.4-10.5,168.4-10.5z"/>
<path class="st1" d="M315.8,22.9c-49.1,28.2-76.5,4.3-86.3,33.3c-9.8,29-13.2,35.5-36.7,67.1s-91.4,25.6-55.5,45.7
	s109.4-10.7,109.4-35s21.4-48.7,44-42.3c22.6,6.4,50-48.3,40.2-50.8S315.8,22.9,315.8,22.9z"/>
<path class="st1" d="M-8.9,124.1c26.9,11.1,33.3,27.3,57.2,16.2c23.9-11.1,34.2-40.6,47.4-37.6s37.2,16.7,13.7,45.3
	s16.2,35.5,28.6,38.9c12.4,3.4,14.1,47-28.6,38.9s-37.6-33.3-41-39.3s-13.2,4.3-43.6,3.8c-30.3-0.4-65.4-18.8-57.5-41.9
	S-8.9,124.1-8.9,124.1z"/>
<path class="st1" d="M316.2,104.4c-22.6,3.8-45.7,4.4-45.7,45.6s-50.4,28.3-52.1,44.1c-1.7,15.8,72.6,61.5,109.8,20.5
	s20.5-60.7,20.5-60.7L316.2,104.4z"/>
<path class="st1" d="M161.1,204.4c-10.3,14.8,7.3,41.4-18.4,53.8c-25.6,12.4-20.5,46.6-15.8,51.3s59.8,9.4,58.9-19.6
	c-0.9-29,27.3-72.6,22.2-80.3S171.8,189,161.1,204.4z"/>
<path class="st1" d="M312.8,251.4c-45.3-6.4-35,2.1-62.4-8.1s-41.5,6-41.7,18.8c-0.2,12.8-4.9,36.7,7.5,43.6
	c12.4,6.8,111.5,4.3,111.5,4.3L312.8,251.4z"/>
<path class="st1" d="M-8.9,212.9c38.9-1.3,32.8-7.3,50.2-7.3s25.9,32,38.7,32.5s53.8,9,37.6,23.9s-82.9,17.5-89.3,0
	s-37.2-16.7-37.2-16.7"/>
<path class="st1" d="M-8.9,266.3c18.4,6.4,25.7,14.5,41.7,14.5s37.8,15.4,19.4,26.9c-18.4,11.5-69.2-0.9-69.2-0.9"/>
<path class="st1" d="M71.9,312.5c-1.3-25.2,0.9-30.8,16.7-32.5c15.8-1.7,26.5-2.1,19.2,23.9"/>
<path class="st1" d="M229.9-25.1c-1.9,32-6.7,50.9,9,50.9s77.5-9.1,77.5-19.7S229.9-25.1,229.9-25.1z"/>
</svg>
