<?xml version="1.0" encoding="utf-8"?>
<!-- Generator: Adobe Illustrator 19.1.0, SVG Export Plug-In . SVG Version: 6.00 Build 0)  -->
<svg version="1.1" id="Layer_1" xmlns="http://www.w3.org/2000/svg" xmlns:xlink="http://www.w3.org/1999/xlink" x="0px" y="0px"
	 viewBox="0 0 100 100" style="enable-background:new 0 0 100 100;" xml:space="preserve">
<style type="text/css">
	.st0{fill:none;stroke:#FFFFFF;stroke-width:2;stroke-linecap:round;stroke-linejoin:round;stroke-miterlimit:10;}
	.st1{fill:none;stroke:#FFFFFF;stroke-linecap:round;stroke-linejoin:round;stroke-miterlimit:10;}
</style>
<g>
</g>
<polyline class="st0" points="77.4,25.8 77.4,90.3 19.4,90.3 19.4,9.7 61.3,9.7 "/>
<polygon class="st0" points="61.3,9.7 61.3,25.8 77.4,25.8 "/>
<line class="st1" x1="25.8" y1="35.5" x2="58.1" y2="35.5"/>
<line class="st1" x1="25.8" y1="38.7" x2="58.1" y2="38.7"/>
<line class="st1" x1="25.8" y1="41.9" x2="58.1" y2="41.9"/>
<line class="st1" x1="25.8" y1="45.2" x2="58.1" y2="45.2"/>
<line class="st1" x1="25.8" y1="48.4" x2="58.1" y2="48.4"/>
<line class="st1" x1="25.8" y1="51.6" x2="48.4" y2="51.6"/>
<line class="st1" x1="25.8" y1="54.8" x2="48.4" y2="54.8"/>
<line class="st1" x1="25.8" y1="58.1" x2="48.4" y2="58.1"/>
<line class="st1" x1="25.8" y1="61.3" x2="48.4" y2="61.3"/>
<line class="st1" x1="25.8" y1="64.5" x2="58.1" y2="64.5"/>
<line class="st1" x1="25.8" y1="67.7" x2="58.1" y2="67.7"/>
<line class="st1" x1="25.8" y1="71" x2="58.1" y2="71"/>
<line class="st1" x1="25.8" y1="74.2" x2="58.1" y2="74.2"/>
<line class="st1" x1="25.8" y1="77.4" x2="58.1" y2="77.4"/>
<line class="st1" x1="25.8" y1="80.6" x2="58.1" y2="80.6"/>
<rect x="51.6" y="51.6" class="st1" width="12.9" height="9.7"/>
</svg>
