<?xml version="1.0" encoding="utf-8"?>
<!-- Generator: Adobe Illustrator 19.1.0, SVG Export Plug-In . SVG Version: 6.00 Build 0)  -->
<svg version="1.1" id="Layer_1" xmlns="http://www.w3.org/2000/svg" xmlns:xlink="http://www.w3.org/1999/xlink" x="0px" y="0px"
	 viewBox="0 0 100 100" style="enable-background:new 0 0 100 100;" xml:space="preserve">
<style type="text/css">
	.st0{fill:none;stroke:#3DB9CA;stroke-width:5;stroke-miterlimit:10;}
	.st1{fill:#31A6AF;}
</style>
<line class="st0" x1="50.4" y1="-50.4" x2="-50.4" y2="50.4"/>
<rect x="-0.7" y="0" class="st1" width="100.9" height="100"/>
<line class="st0" x1="57.5" y1="-43.3" x2="-43.3" y2="57.5"/>
<line class="st0" x1="64.7" y1="-36.2" x2="-36.2" y2="64.7"/>
<line class="st0" x1="71.8" y1="-29.1" x2="-29.1" y2="71.8"/>
<line class="st0" x1="78.9" y1="-22" x2="-22" y2="78.9"/>
<line class="st0" x1="86" y1="-14.9" x2="-14.9" y2="86"/>
<line class="st0" x1="93.1" y1="-7.8" x2="-7.8" y2="93.1"/>
<line class="st0" x1="100.2" y1="-0.7" x2="-0.7" y2="100.2"/>
<line class="st0" x1="107.3" y1="6.5" x2="6.5" y2="107.3"/>
<line class="st0" x1="114.4" y1="13.6" x2="13.6" y2="114.4"/>
<line class="st0" x1="121.6" y1="20.7" x2="20.7" y2="121.6"/>
<line class="st0" x1="128.7" y1="27.8" x2="27.8" y2="128.7"/>
<line class="st0" x1="135.8" y1="34.9" x2="34.9" y2="135.8"/>
<line class="st0" x1="142.9" y1="42" x2="42" y2="142.9"/>
<line class="st0" x1="150" y1="49.1" x2="49.1" y2="150"/>
</svg>
