<?xml version="1.0" encoding="utf-8"?>
<!-- Generator: Adobe Illustrator 19.1.0, SVG Export Plug-In . SVG Version: 6.00 Build 0)  -->
<svg version="1.1" id="Layer_1" xmlns="http://www.w3.org/2000/svg" xmlns:xlink="http://www.w3.org/1999/xlink" x="0px" y="0px"
	 viewBox="-949 942.2 100 89.7" style="enable-background:new -949 942.2 100 89.7;" xml:space="preserve">
<style type="text/css">
	.st0{fill:#3DB9CA;}
</style>
<g>
	<path class="st0" d="M-881.5,960.8H-929c-1,0-1.9-0.8-1.9-1.9c0-1,0.8-1.9,1.9-1.9h47.5c1,0,1.9,0.8,1.9,1.9
		C-879.6,960-880.4,960.8-881.5,960.8z"/>
</g>
<g>
	<path class="st0" d="M-910.5,972.6H-929c-1,0-1.9-0.8-1.9-1.9c0-1,0.8-1.9,1.9-1.9h18.5c1,0,1.9,0.8,1.9,1.9
		C-908.6,971.7-909.5,972.6-910.5,972.6z"/>
</g>
<g>
	<path class="st0" d="M-894.4,996.2H-929c-1,0-1.9-0.8-1.9-1.9c0-1,0.8-1.9,1.9-1.9h34.6c1,0,1.9,0.8,1.9,1.9
		C-892.5,995.3-893.4,996.2-894.4,996.2z"/>
</g>
<g>
	<path class="st0" d="M-865.9,996.2h-19.6c-1,0-1.9-0.8-1.9-1.9c0-1,0.8-1.9,1.9-1.9h19.6c1,0,1.9,0.8,1.9,1.9
		C-864,995.3-864.8,996.2-865.9,996.2z"/>
</g>
<g>
	<path class="st0" d="M-866.3,984.4H-929c-1,0-1.9-0.8-1.9-1.9c0-1,0.8-1.9,1.9-1.9h62.7c1,0,1.9,0.8,1.9,1.9
		C-864.4,983.5-865.3,984.4-866.3,984.4z"/>
</g>
<g>
	<path class="st0" d="M-936.1,965.4c-0.5,0-1-0.2-1.4-0.6l-4.4-4.6c-0.7-0.7-0.7-1.9,0-2.6l4.3-4.5c0.7-0.8,1.9-0.8,2.7-0.1
		c0.8,0.7,0.8,1.9,0.1,2.7l-3.1,3.2l3.1,3.3c0.7,0.8,0.7,1.9-0.1,2.7C-935.2,965.2-935.6,965.4-936.1,965.4z"/>
</g>
<g>
	<path class="st0" d="M-936.1,1012.4c-0.5,0-1-0.2-1.4-0.6l-4.4-4.6c-0.7-0.7-0.7-1.9,0-2.6l4.3-4.5c0.7-0.8,1.9-0.8,2.7-0.1
		c0.8,0.7,0.8,1.9,0.1,2.7l-3.1,3.2l3.1,3.3c0.7,0.8,0.7,1.9-0.1,2.7C-935.2,1012.3-935.6,1012.4-936.1,1012.4z"/>
</g>
<g>
	<path class="st0" d="M-877.8,1024.2c-0.5,0-0.9-0.2-1.3-0.5c-0.8-0.7-0.8-1.9-0.1-2.7l3.1-3.2l-3.1-3.3c-0.7-0.8-0.7-1.9,0.1-2.7
		c0.8-0.7,1.9-0.7,2.7,0.1l4.4,4.6c0.7,0.7,0.7,1.9,0,2.6l-4.3,4.5C-876.8,1024-877.3,1024.2-877.8,1024.2z"/>
</g>
<g>
	<path class="st0" d="M-860.3,1000.3c-0.5,0-0.9-0.2-1.3-0.5c-0.8-0.7-0.8-1.9-0.1-2.7l3.1-3.2l-3.1-3.3c-0.7-0.8-0.7-1.9,0.1-2.7
		c0.8-0.7,1.9-0.7,2.7,0.1l4.4,4.6c0.7,0.7,0.7,1.9,0,2.6l-4.3,4.5C-859.3,1000.1-859.8,1000.3-860.3,1000.3z"/>
</g>
<g>
	<path class="st0" d="M-904.9,1007.9H-929c-1,0-1.9-0.8-1.9-1.9c0-1,0.8-1.9,1.9-1.9h24.1c1,0,1.9,0.8,1.9,1.9
		C-903,1007.1-903.8,1007.9-904.9,1007.9z"/>
</g>
<g>
	<path class="st0" d="M-866.3,1007.9H-896c-1,0-1.9-0.8-1.9-1.9c0-1,0.8-1.9,1.9-1.9h29.7c1,0,1.9,0.8,1.9,1.9
		C-864.4,1007.1-865.3,1007.9-866.3,1007.9z"/>
</g>
<g>
	<path class="st0" d="M-883.2,1019.7H-929c-1,0-1.9-0.8-1.9-1.9c0-1,0.8-1.9,1.9-1.9h45.8c1,0,1.9,0.8,1.9,1.9
		C-881.3,1018.8-882.1,1019.7-883.2,1019.7z"/>
</g>
</svg>
