<?xml version="1.0" encoding="utf-8"?>
<!-- Generator: Adobe Illustrator 19.1.0, SVG Export Plug-In . SVG Version: 6.00 Build 0)  -->
<svg version="1.1" id="Layer_1" xmlns="http://www.w3.org/2000/svg" xmlns:xlink="http://www.w3.org/1999/xlink" x="0px" y="0px"
	 viewBox="0 0 100 100" style="enable-background:new 0 0 100 100;" xml:space="preserve">
<style type="text/css">
	.st0{fill:#FFFFFF;}
	.st1{fill:none;stroke:#FFFFFF;stroke-miterlimit:10;}
	.st2{fill:none;stroke:#FFFFFF;stroke-width:0.5;stroke-miterlimit:10;}
</style>
<g>
</g>
<g>
	<g>
		<path class="st0" d="M87.1,22.6v54.8H12.9V22.6H87.1 M89.1,20.6h-2H12.9h-2v2v54.8v2h2h74.2h2v-2V22.6V20.6L89.1,20.6z"/>
	</g>
	<line class="st1" x1="12.9" y1="26.9" x2="87.1" y2="26.9"/>
</g>
<g>
	<path class="st0" d="M45.6,56.1c-0.1,0-0.2,0-0.2-0.1l-8.6-4.3c-0.3-0.1-0.4-0.4-0.4-0.8c0-0.3,0.2-0.6,0.4-0.7l8.6-4.3
		c0.1,0,0.2,0,0.3,0c0.3,0,0.6,0.2,0.6,0.6c0,0.2-0.1,0.4-0.4,0.6L37.8,51l8.1,3.9c0.2,0.1,0.3,0.3,0.3,0.5
		C46.3,55.8,45.9,56.1,45.6,56.1z"/>
	<path class="st0" d="M53.1,43.8l-5,14.8C48,58.9,47.8,59,47.5,59c-0.4,0-0.6-0.3-0.6-0.6c0-0.1,0-0.1,0-0.2l5-14.8
		c0.1-0.2,0.3-0.4,0.6-0.4c0.4,0,0.6,0.3,0.6,0.6C53.1,43.7,53.1,43.7,53.1,43.8z"/>
	<path class="st0" d="M63.3,51.7L54.6,56c-0.1,0-0.2,0.1-0.3,0.1c-0.3,0-0.6-0.3-0.6-0.6c0-0.2,0.1-0.4,0.3-0.5l8.1-3.9l-8.1-3.9
		c-0.2-0.1-0.4-0.3-0.4-0.5c0-0.4,0.3-0.6,0.6-0.6c0.1,0,0.2,0,0.3,0l8.6,4.3c0.3,0.1,0.4,0.4,0.4,0.7
		C63.7,51.3,63.5,51.6,63.3,51.7z"/>
</g>
<circle class="st2" cx="16.1" cy="24.5" r="0.9"/>
<circle class="st2" cx="19.4" cy="24.5" r="0.9"/>
<circle class="st2" cx="22.6" cy="24.5" r="0.9"/>
</svg>
