<?xml version="1.0" encoding="utf-8"?>
<!-- Generator: Adobe Illustrator 19.1.0, SVG Export Plug-In . SVG Version: 6.00 Build 0)  -->
<svg version="1.1" id="Layer_1" xmlns="http://www.w3.org/2000/svg" xmlns:xlink="http://www.w3.org/1999/xlink" x="0px" y="0px"
	 viewBox="0 0 100 100" style="enable-background:new 0 0 100 100;" xml:space="preserve">
<style type="text/css">
	.st0{fill:none;stroke:#FFFFFF;stroke-width:2;stroke-linecap:round;stroke-linejoin:round;stroke-miterlimit:10;}
	.st1{fill:none;stroke:#FFFFFF;stroke-linecap:round;stroke-linejoin:round;stroke-miterlimit:10;}
	.st2{fill:#FFFFFF;}
</style>
<g>
</g>
<path class="st0" d="M56.1,83.9H18.1c-1.1,0-2-0.9-2-2V21.4c0-1.1,0.9-2,2-2h37.9c1.1,0,2,0.9,2,2v60.5C58.1,83,57.2,83.9,56.1,83.9
	z"/>
<rect x="19.4" y="22.6" class="st1" width="35.5" height="51.6"/>
<g>
	<path class="st2" d="M37.1,77.9c0.7,0,1.3,0.6,1.3,1.3c0,0.7-0.6,1.3-1.3,1.3s-1.3-0.6-1.3-1.3C35.8,78.4,36.4,77.9,37.1,77.9
		 M37.1,76.9c-1.3,0-2.3,1-2.3,2.3c0,1.3,1,2.3,2.3,2.3s2.3-1,2.3-2.3C39.4,77.9,38.3,76.9,37.1,76.9L37.1,76.9z"/>
</g>
<rect x="22.6" y="25.8" class="st1" width="29" height="12.9"/>
<line class="st1" x1="22.6" y1="41.9" x2="35.5" y2="41.9"/>
<line class="st1" x1="38.7" y1="41.9" x2="51.6" y2="41.9"/>
<line class="st1" x1="22.6" y1="45.2" x2="35.5" y2="45.2"/>
<line class="st1" x1="38.7" y1="45.2" x2="51.6" y2="45.2"/>
<line class="st1" x1="22.6" y1="48.4" x2="35.5" y2="48.4"/>
<line class="st1" x1="38.7" y1="48.4" x2="51.6" y2="48.4"/>
<line class="st1" x1="22.6" y1="51.6" x2="35.5" y2="51.6"/>
<line class="st1" x1="38.7" y1="51.6" x2="51.6" y2="51.6"/>
<line class="st1" x1="38.7" y1="54.8" x2="51.6" y2="54.8"/>
<line class="st1" x1="38.7" y1="58.1" x2="51.6" y2="58.1"/>
<line class="st1" x1="38.7" y1="61.3" x2="51.6" y2="61.3"/>
<line class="st1" x1="38.7" y1="64.5" x2="51.6" y2="64.5"/>
<line class="st1" x1="38.7" y1="67.7" x2="51.6" y2="67.7"/>
<line class="st1" x1="38.7" y1="71" x2="51.6" y2="71"/>
<rect x="22.6" y="54.8" class="st1" width="12.9" height="16.1"/>
<path class="st0" d="M85.1,83.9H66.5c-1.1,0-2-0.9-2-2V43.1c0-1.1,0.9-2,2-2h18.6c1.1,0,2,0.9,2,2v38.8C87.1,83,86.2,83.9,85.1,83.9
	z"/>
<rect x="67.7" y="45.2" class="st1" width="16.1" height="32.6"/>
<rect x="71" y="48.4" class="st1" width="9.7" height="9.7"/>
<line class="st1" x1="71" y1="61.3" x2="80.6" y2="61.3"/>
<line class="st1" x1="71" y1="64.5" x2="80.6" y2="64.5"/>
<line class="st1" x1="71" y1="67.7" x2="80.6" y2="67.7"/>
<line class="st1" x1="71" y1="71" x2="80.6" y2="71"/>
<line class="st1" x1="71" y1="74.2" x2="80.6" y2="74.2"/>
</svg>
